<svg xmlns="http://www.w3.org/2000/svg" width="588" height="179" viewBox="0 0 588 179" version="1.1"><title>Group</title><desc>Created with Sketch.</desc><g stroke="none" stroke-width="1" fill="none" fill-rule="evenodd"><g transform="translate(-1.000000, -1.000000)"><g transform="translate(12.018264, 167.780416) scale(1, -1) translate(-12.018264, -167.780416) translate(0.518264, 156.280416)" fill="#FFFFFF"><path d="M10.7 5.3C11.5 5.3 12.4 5.5 13.2 5.8 14 6.1 14.7 6.6 15.3 7.1 15.9 7.7 16.4 8.3 16.7 9.1 17.1 9.8 17.3 10.6 17.3 11.4 17.3 12.3 17.1 13.1 16.7 13.8 16.4 14.6 15.9 15.2 15.3 15.8 14.7 16.3 14 16.8 13.2 17.1 12.4 17.4 11.5 17.6 10.7 17.6L6.2 17.6 6.2 5.3 10.7 5.3ZM0.7 0.2L0.7 22.7 10.7 22.7C11.8 22.7 12.8 22.6 13.9 22.3 14.9 22.1 15.9 21.7 16.8 21.2 17.7 20.7 18.5 20.1 19.2 19.4 20 18.7 20.6 18 21.1 17.1 21.6 16.3 22 15.4 22.3 14.4 22.6 13.5 22.8 12.5 22.8 11.4 22.8 10.4 22.6 9.4 22.3 8.4 22 7.5 21.6 6.6 21.1 5.8 20.6 4.9 20 4.2 19.2 3.5 18.5 2.8 17.7 2.2 16.8 1.7 15.9 1.2 14.9 0.8 13.9 0.6 12.8 0.3 11.8 0.2 10.7 0.2L0.7 0.2Z"/></g><path d="M49 156.5L43.5 156.5 43.5 179.1 49 179.1 49 156.5Z" fill="#FFFFFF" transform="translate(46.289330, 167.824016) scale(1, -1) translate(-46.289330, -167.824016) "/><g transform="translate(80.726529, 167.780416) scale(1, -1) translate(-80.726529, -167.780416) translate(69.226529, 155.780416)" fill="#FFFFFF"><path d="M21.7 13.3L21.7 3.5C21 2.9 20.3 2.4 19.6 2 18.9 1.6 18.1 1.3 17.3 1.1 16.5 0.8 15.7 0.7 14.9 0.6 14.1 0.5 13.2 0.5 12.4 0.5 11.3 0.5 10.2 0.6 9.1 0.9 8.1 1.1 7.1 1.5 6.2 2 5.3 2.5 4.4 3.1 3.7 3.8 2.9 4.5 2.3 5.3 1.8 6.2 1.2 7 0.8 7.9 0.5 8.9 0.2 9.9 0.1 10.9 0.1 12 0.1 13 0.2 14 0.5 15 0.8 16 1.2 16.9 1.8 17.8 2.3 18.6 2.9 19.4 3.7 20.1 4.4 20.8 5.3 21.4 6.2 21.9 7.1 22.4 8.1 22.8 9.1 23.1 10.2 23.3 11.3 23.5 12.4 23.5 13.3 23.5 14.2 23.4 15 23.2 15.9 22.9 16.8 22.6 17.6 22.3 18.4 21.9 19.2 21.4 20 20.8 20.8 20.3 21.5 19.7 22.2 19L20.8 17.6C20.1 16.9 19.2 16.6 18.2 16.6 17.4 16.6 16.8 16.8 16.2 17.2 15.6 17.5 15 17.8 14.4 18 13.7 18.2 13.1 18.3 12.4 18.3 11.5 18.3 10.6 18.1 9.7 17.8 8.9 17.5 8.2 17 7.6 16.4 7 15.9 6.5 15.2 6.1 14.4 5.7 13.7 5.6 12.8 5.6 12 5.6 11.1 5.7 10.2 6.1 9.4 6.5 8.6 7 8 7.7 7.4 8.3 6.9 9 6.4 9.9 6.1 10.7 5.8 11.6 5.6 12.5 5.6 13.2 5.6 13.8 5.7 14.5 5.8 15.1 5.9 15.7 6.1 16.2 6.3L16.2 8.5C15.6 8.5 15.2 8.6 14.7 8.7 14.3 8.9 13.9 9.1 13.6 9.4 13.2 9.6 13 10 12.8 10.3 12.6 10.7 12.5 11.1 12.5 11.5L12.5 13.3 21.7 13.3Z"/></g><path d="M117.4 156.5L112 156.5 112 179.1 117.4 179.1 117.4 156.5Z" fill="#FFFFFF" transform="translate(114.697328, 167.824016) scale(1, -1) translate(-114.697328, -167.824016) "/><g transform="translate(146.406261, 168.008282) scale(1, -1) translate(-146.406261, -168.008282) translate(136.906261, 156.008282)" fill="#FFFFFF"><path d="M0 18.7L0 23.5 18.8 23.5 18.8 18.7 12.2 18.7 12.2 0.9 6.7 0.9 6.7 18.7 0 18.7Z"/></g><g transform="translate(181.707060, 167.762149) scale(1, -1) translate(-181.707060, -167.762149) translate(168.207060, 156.262149)" fill="#FFFFFF"><path d="M10.7 9.3L15.8 9.3 13.7 14.1C13.6 14.3 13.5 14.5 13.5 14.7 13.4 14.9 13.4 15 13.3 15.2 13.3 15.3 13.3 15.5 13.2 15.6 13.2 15.5 13.2 15.3 13.1 15.2 13.1 15 13.1 14.8 13 14.7 12.9 14.5 12.9 14.3 12.8 14.1L10.7 9.3ZM10.9 22.7L15.6 22.7 26.1 0.1 22.5 0.1C22.2 0.1 21.8 0.2 21.5 0.3 21.1 0.4 20.8 0.5 20.5 0.7 20.2 0.9 20 1.1 19.8 1.3 19.5 1.6 19.3 1.8 19.2 2.1L18 4.7 8.5 4.7 7.3 2.1C7.2 1.9 7 1.6 6.8 1.4 6.5 1.1 6.3 0.9 6 0.7 5.7 0.5 5.3 0.4 5 0.3 4.6 0.2 4.3 0.1 4 0.1L0.4 0.1 10.9 22.7Z"/></g><g transform="translate(219.343726, 167.613749) scale(1, -1) translate(-219.343726, -167.613749) translate(211.843726, 156.113749)" fill="#FFFFFF"><path d="M0 0L0 22.6 5.5 22.6 5.5 4.8 14.9 4.8 14.9 0 0 0Z"/></g><g transform="translate(278.029991, 168.147616) scale(1, -1) translate(-278.029991, -168.147616) translate(269.029991, 156.147616)" fill="#FFFFFF"><path d="M9.3 18.7C9 18.7 8.8 18.6 8.5 18.6 8.2 18.5 8 18.5 7.8 18.4 7.5 18.3 7.4 18.1 7.3 18 7.1 17.8 7.1 17.6 7.1 17.4 7.1 17.1 7.1 16.8 7.3 16.6 7.5 16.4 7.8 16.3 8.1 16.1 8.5 16 9 15.8 9.5 15.7 10 15.6 10.7 15.4 11.4 15.1 12.3 14.8 13.2 14.5 13.9 14.1 14.7 13.6 15.3 13.1 15.9 12.6 16.4 12 16.9 11.3 17.1 10.6 17.5 9.9 17.6 9.1 17.6 8.2 17.6 7.1 17.4 6.1 16.9 5.2 16.4 4.3 15.7 3.5 14.9 2.9 14.1 2.2 13.1 1.7 12.1 1.4 11 1 9.9 0.8 8.7 0.8 7.7 0.8 6.8 1 5.9 1.2 5 1.5 4.2 1.9 3.5 2.4 2.7 2.9 2.1 3.5 1.5 4.1 1 4.8 0.5 5.5 0.2 6.3L2 7.3C2.2 7.4 2.5 7.6 2.9 7.6 3.2 7.7 3.5 7.8 3.8 7.8 4.3 7.8 4.7 7.7 5.1 7.5 5.5 7.3 5.9 7.1 6.3 6.9 6.6 6.7 7 6.5 7.4 6.3 7.8 6.1 8.2 6 8.7 6 9.1 6 9.4 6 9.8 6.1 10.2 6.2 10.6 6.4 10.9 6.6 11.3 6.8 11.6 7 11.8 7.3 12 7.5 12.1 7.9 12.1 8.2 12.1 8.6 12 8.9 11.8 9.1 11.6 9.3 11.3 9.5 11 9.7 10.6 9.8 10.2 10 9.8 10.1 9.3 10.2 8.8 10.4 8.3 10.6 7.5 10.9 6.7 11.2 5.9 11.6 5.1 11.9 4.3 12.3 3.7 12.8 3.1 13.4 2.6 14 2.2 14.7 1.8 15.4 1.6 16.3 1.6 17.4 1.6 18.4 1.8 19.3 2.2 20.1 2.7 20.9 3.3 21.6 4 22.1 4.7 22.7 5.5 23.1 6.5 23.4 7.4 23.7 8.3 23.8 9.3 23.8 10 23.8 10.7 23.7 11.4 23.5 12.1 23.3 12.7 23 13.3 22.6 13.9 22.2 14.5 21.8 15 21.4 15.5 20.9 16 20.4 16.4 20L14.8 18.6C14.4 18.3 14.1 18.1 13.7 18 13.3 17.9 12.9 17.9 12.5 17.9 12.1 17.9 11.8 17.9 11.6 18 11.3 18.1 11 18.2 10.8 18.3 10.6 18.4 10.3 18.5 10.1 18.5 9.9 18.6 9.6 18.7 9.3 18.7"/></g><g transform="translate(316.947857, 167.812949) scale(1, -1) translate(-316.947857, -167.812949) translate(304.447857, 155.812949)" fill="#FFFFFF"><path d="M5.7 12C5.7 11.1 5.9 10.3 6.2 9.5 6.6 8.8 7.1 8.1 7.7 7.5 8.3 6.9 9.1 6.5 9.9 6.1 10.7 5.8 11.6 5.6 12.5 5.6 13.4 5.6 14.3 5.8 15.1 6.1 16 6.5 16.7 6.9 17.3 7.5 17.9 8.1 18.4 8.8 18.8 9.5 19.2 10.3 19.4 11.1 19.4 12 19.4 12.9 19.2 13.7 18.8 14.5 18.4 15.2 17.9 15.9 17.3 16.5 16.7 17 16 17.5 15.1 17.8 14.3 18.2 13.4 18.3 12.5 18.3 11.6 18.3 10.7 18.2 9.9 17.8 9.1 17.5 8.3 17 7.7 16.5 7.1 15.9 6.6 15.2 6.2 14.5 5.9 13.7 5.7 12.9 5.7 12M0.2 12C0.2 13.1 0.3 14.1 0.6 15.1 0.9 16 1.3 17 1.9 17.8 2.4 18.7 3.1 19.4 3.8 20.1 4.6 20.8 5.4 21.4 6.3 21.9 7.2 22.4 8.2 22.8 9.2 23.1 10.3 23.4 11.4 23.5 12.5 23.5 13.6 23.5 14.7 23.4 15.8 23.1 16.8 22.8 17.8 22.4 18.7 21.9 19.6 21.4 20.5 20.8 21.2 20.1 22 19.4 22.6 18.7 23.1 17.8 23.7 17 24.1 16 24.4 15.1 24.7 14.1 24.8 13.1 24.8 12 24.8 10.9 24.7 9.9 24.4 8.9 24.1 8 23.7 7 23.1 6.2 22.6 5.3 22 4.6 21.2 3.9 20.5 3.2 19.6 2.6 18.7 2.1 17.8 1.6 16.8 1.2 15.8 0.9 14.7 0.6 13.6 0.5 12.5 0.5 11.4 0.5 10.3 0.6 9.2 0.9 8.2 1.2 7.2 1.6 6.3 2.1 5.4 2.6 4.6 3.2 3.8 3.9 3.1 4.6 2.4 5.3 1.9 6.2 1.3 7 0.9 8 0.6 8.9 0.3 9.9 0.2 10.9 0.2 12"/></g><g transform="translate(356.463589, 167.613749) scale(1, -1) translate(-356.463589, -167.613749) translate(348.963589, 156.113749)" fill="#FFFFFF"><path d="M0 0L0 22.6 5.5 22.6 5.5 4.8 14.9 4.8 14.9 0 0 0Z"/></g><g transform="translate(392.746121, 167.854682) scale(1, -1) translate(-392.746121, -167.854682) translate(382.246121, 156.354682)" fill="#FFFFFF"><path d="M5.7 9.3C5.7 8.8 5.8 8.2 6 7.7 6.3 7.2 6.6 6.8 7 6.4 7.4 6 7.9 5.7 8.5 5.5 9 5.3 9.6 5.2 10.2 5.2 10.8 5.2 11.3 5.3 11.9 5.5 12.4 5.7 12.9 6 13.3 6.4 13.7 6.8 14.1 7.2 14.3 7.7 14.6 8.2 14.7 8.8 14.7 9.3L14.7 22.8 20.2 22.8 20.2 9.3C20.2 8 19.9 6.8 19.4 5.7 18.9 4.6 18.1 3.6 17.2 2.7 16.3 1.9 15.3 1.2 14.1 0.8 12.9 0.3 11.6 0 10.2 0 9.3 0 8.4 0.1 7.5 0.4 6.7 0.6 5.9 0.9 5.1 1.3 4.4 1.7 3.7 2.2 3.1 2.7 2.5 3.3 2 3.9 1.6 4.6 1.1 5.3 0.8 6.1 0.5 6.9 0.3 7.6 0.2 8.5 0.2 9.3L0.2 22.8 5.7 22.8 5.7 9.3Z"/></g><g transform="translate(430.305987, 168.008282) scale(1, -1) translate(-430.305987, -168.008282) translate(420.805987, 156.008282)" fill="#FFFFFF"><path d="M0 18.7L0 23.5 18.8 23.5 18.8 18.7 12.2 18.7 12.2 0.9 6.7 0.9 6.7 18.7 0 18.7Z"/></g><path d="M464.6 156.5L459.2 156.5 459.2 179.1 464.6 179.1 464.6 156.5Z" fill="#FFFFFF" transform="translate(461.900653, 167.824016) scale(1, -1) translate(-461.900653, -167.824016) "/><g transform="translate(497.222652, 167.812949) scale(1, -1) translate(-497.222652, -167.812949) translate(484.722652, 155.812949)" fill="#FFFFFF"><path d="M5.7 12C5.7 11.1 5.8 10.3 6.2 9.5 6.6 8.8 7.1 8.1 7.7 7.5 8.3 6.9 9.1 6.5 9.9 6.1 10.7 5.8 11.6 5.6 12.5 5.6 13.4 5.6 14.3 5.8 15.1 6.1 16 6.5 16.7 6.9 17.3 7.5 17.9 8.1 18.4 8.8 18.8 9.5 19.2 10.3 19.4 11.1 19.4 12 19.4 12.9 19.2 13.7 18.8 14.5 18.4 15.2 17.9 15.9 17.3 16.5 16.7 17 16 17.5 15.1 17.8 14.3 18.2 13.4 18.3 12.5 18.3 11.6 18.3 10.7 18.2 9.9 17.8 9.1 17.5 8.3 17 7.7 16.5 7.1 15.9 6.6 15.2 6.2 14.5 5.8 13.7 5.7 12.9 5.7 12M0.2 12C0.2 13.1 0.3 14.1 0.6 15.1 0.9 16 1.3 17 1.9 17.8 2.4 18.7 3.1 19.4 3.8 20.1 4.6 20.8 5.4 21.4 6.3 21.9 7.2 22.4 8.2 22.8 9.2 23.1 10.3 23.4 11.4 23.5 12.5 23.5 13.6 23.5 14.7 23.4 15.8 23.1 16.8 22.8 17.8 22.4 18.7 21.9 19.6 21.4 20.5 20.8 21.2 20.1 22 19.4 22.6 18.7 23.1 17.8 23.7 17 24.1 16 24.4 15.1 24.7 14.1 24.8 13.1 24.8 12 24.8 10.9 24.7 9.9 24.4 8.9 24.1 8 23.7 7 23.1 6.2 22.6 5.3 22 4.6 21.2 3.9 20.5 3.2 19.6 2.6 18.7 2.1 17.8 1.6 16.8 1.2 15.8 0.9 14.7 0.6 13.6 0.5 12.5 0.5 11.4 0.5 10.3 0.6 9.2 0.9 8.2 1.2 7.2 1.6 6.3 2.1 5.4 2.6 4.6 3.2 3.8 3.9 3.1 4.6 2.4 5.3 1.9 6.2 1.3 7 0.9 8 0.6 8.9 0.3 9.9 0.2 10.9 0.2 12"/></g><g transform="translate(540.464784, 167.613749) scale(1, -1) translate(-540.464784, -167.613749) translate(528.964784, 156.113749)" fill="#FFFFFF"><path d="M22.7 0L17.2 0 5.8 15.6 5.8 0 0.3 0 0.3 22.6 5.7 22.6C6.2 22.6 6.7 22.5 7.1 22.4 7.5 22.2 7.9 22 8.1 21.7L16.5 10.1C16.6 9.9 16.7 9.8 16.8 9.6 16.9 9.4 16.9 9.2 17 9 17.1 8.8 17.1 8.7 17.2 8.6 17.2 8.4 17.2 8.3 17.2 8.3L17.2 22.6 22.7 22.6 22.7 0Z"/></g><g transform="translate(579.605450, 168.147616) scale(1, -1) translate(-579.605450, -168.147616) translate(570.605450, 156.147616)" fill="#FFFFFF"><path d="M9.3 18.7C9 18.7 8.8 18.6 8.5 18.6 8.2 18.5 8 18.5 7.8 18.4 7.5 18.3 7.4 18.1 7.2 18 7.1 17.8 7.1 17.6 7.1 17.4 7.1 17.1 7.1 16.8 7.3 16.6 7.5 16.4 7.8 16.3 8.1 16.1 8.5 16 8.9 15.8 9.5 15.7 10 15.6 10.7 15.4 11.4 15.1 12.3 14.8 13.2 14.5 13.9 14.1 14.7 13.6 15.3 13.1 15.9 12.6 16.4 12 16.8 11.3 17.1 10.6 17.4 9.9 17.6 9.1 17.6 8.2 17.6 7.1 17.4 6.1 16.9 5.2 16.4 4.3 15.7 3.5 14.9 2.9 14.1 2.2 13.1 1.7 12.1 1.4 11 1 9.9 0.8 8.7 0.8 7.7 0.8 6.8 1 5.9 1.2 5 1.5 4.2 1.9 3.5 2.4 2.7 2.9 2.1 3.5 1.5 4.1 1 4.8 0.5 5.5 0.2 6.3L2 7.3C2.2 7.4 2.5 7.6 2.9 7.6 3.2 7.7 3.5 7.8 3.8 7.8 4.3 7.8 4.7 7.7 5.1 7.5 5.5 7.3 5.9 7.1 6.2 6.9 6.6 6.7 7 6.5 7.4 6.3 7.8 6.1 8.2 6 8.7 6 9.1 6 9.4 6 9.8 6.1 10.2 6.2 10.6 6.4 10.9 6.6 11.3 6.8 11.5 7 11.8 7.3 12 7.5 12.1 7.9 12.1 8.2 12.1 8.6 12 8.9 11.8 9.1 11.6 9.3 11.3 9.5 11 9.7 10.6 9.8 10.2 10 9.7 10.1 9.3 10.2 8.8 10.4 8.3 10.6 7.5 10.9 6.7 11.2 5.9 11.6 5.1 11.9 4.3 12.3 3.7 12.8 3.1 13.4 2.6 14 2.2 14.7 1.8 15.4 1.6 16.3 1.6 17.4 1.6 18.4 1.8 19.3 2.2 20.1 2.7 20.9 3.2 21.6 4 22.1 4.7 22.7 5.5 23.1 6.5 23.4 7.4 23.7 8.3 23.8 9.3 23.8 10 23.8 10.7 23.7 11.4 23.5 12.1 23.3 12.7 23 13.3 22.6 13.9 22.2 14.5 21.8 15 21.4 15.5 20.9 16 20.4 16.4 20L14.8 18.6C14.4 18.3 14.1 18.1 13.7 18 13.3 17.9 12.9 17.9 12.5 17.9 12.1 17.9 11.8 17.9 11.6 18 11.3 18.1 11 18.2 10.8 18.3 10.6 18.4 10.3 18.5 10.1 18.5 9.9 18.6 9.6 18.7 9.3 18.7"/></g><g transform="translate(148.408795, 71.013483) scale(1, -1) translate(-148.408795, -71.013483) translate(88.408795, 12.013483)" fill="#FF8300"><path d="M60 88L78.6 45.3 41.4 45.3 60 88ZM69 117.1L51 117.1 0.1 0.3 12.4 0.3C15.2 0.3 17.9 1.1 20.2 2.6 22.6 4.2 24.4 6.3 25.5 8.9L32.7 25.4 87.2 25.4 94.5 8.8C95.7 6.2 97.5 4.1 99.8 2.6 102.1 1.1 104.8 0.3 107.6 0.3L119.9 0.3 69 117.1Z"/></g><path d="M227.4 12.9L247.3 12.9 247.3 129.7 227.4 129.7 227.4 12.9Z" fill="#FF8300" transform="translate(237.344658, 71.308685) scale(1, -1) translate(-237.344658, -71.308685) "/><g transform="translate(316.049458, 71.150283) scale(1, -1) translate(-316.049458, -71.150283) translate(269.549458, 12.150283)" fill="#FF8300"><path d="M20 97.3L42.6 97.3C44.7 97.3 46.7 96.9 48.5 96.1 50.3 95.3 51.9 94.2 53.3 92.9 54.7 91.5 55.8 89.9 56.6 88.1 57.4 86.2 57.8 84.3 57.8 82.2 57.8 80.1 57.4 78.1 56.6 76.3 55.8 74.5 54.7 72.8 53.3 71.5 51.9 70.1 50.3 69 48.5 68.3 46.7 67.5 44.7 67.1 42.6 67.1L20 67.1 20 97.3ZM56.1 49.9C58.6 50.9 60.9 52.2 63.1 53.8 66 55.9 68.6 58.5 70.8 61.3 72.9 64.2 74.7 67.5 75.8 71 77 74.5 77.6 78.3 77.6 82.2 77.6 87 76.7 91.6 74.9 95.9 73.1 100.1 70.5 103.8 67.4 107 64.3 110.1 60.5 112.6 56.3 114.4 52 116.3 47.4 117.2 42.6 117.2L0.1 117.2 0.1 0.5 20 0.5 20 47.2 33.4 47.2 62.2 8.5C63.9 5.8 66.1 3.8 68.7 2.5 71.4 1.1 74.4 0.5 77.7 0.5L92.7 0.5 56.1 49.9Z"/></g><g transform="translate(550.462252, 71.553883) scale(1, -1) translate(-550.462252, -71.553883) translate(511.962252, 12.053883)" fill="#FF8300"><path d="M64.3 62.7C62.7 63.9 60.9 65 59.1 66 57.4 66.9 55.6 67.7 53.8 68.5 52 69.3 50.1 70 48.2 70.7 46.3 71.3 44.5 72 42.7 72.7 39 74 35.9 75.1 33.3 76.2 30.9 77.3 28.9 78.4 27.4 79.5 26 80.6 25 81.8 24.4 83.1 23.8 84.4 23.4 86.1 23.4 88 23.4 89.7 23.8 91.2 24.7 92.5 25.5 94 26.7 95.2 28.1 96.3 29.6 97.4 31.4 98.2 33.3 98.9 35.3 99.5 37.5 99.8 39.7 99.8 41.3 99.8 43.1 99.4 45 98.6 46.9 97.8 48.9 96.7 50.9 95.2 53.1 93.8 55.6 93.1 58.4 93.1 61.7 93.1 64.6 94.2 67.1 96.3L72.5 100.4 71.4 101.8C69.9 103.6 68 105.5 65.9 107.5 63.6 109.5 61.1 111.3 58.4 113 55.6 114.7 52.6 116.1 49.5 117.2 46.3 118.3 43 118.8 39.7 118.8 35.4 118.8 31 118.1 26.8 116.8 22.6 115.4 18.8 113.4 15.5 110.8 12.2 108.2 9.5 104.9 7.5 101.1 5.5 97.3 4.4 92.9 4.4 88 4.4 82.7 5.4 78.2 7.3 74.6 9.1 71 11.6 68 14.7 65.5 17.7 63.1 21.2 61 25 59.3 28.6 57.7 32.5 56.1 36.4 54.6 39.2 53.5 41.8 52.5 44.4 51.5 46.9 50.6 49.2 49.4 51.3 48.1 53.3 46.8 54.9 45.3 56.1 43.5 57.3 41.8 57.9 39.6 57.9 36.9 57.9 34.1 57.2 31.6 55.9 29.5 54.6 27.4 52.9 25.5 50.9 24.1 48.9 22.6 46.5 21.5 44 20.7 38.3 19 32.9 19.3 28.9 20.8 26.6 21.6 24.6 22.8 22.7 24.4L21.5 25.3C18.9 28.1 15.6 29.5 11.7 29.5 9.2 29.5 7.7 28.7 5.7 27.5L0.1 24.3 0.8 22.9C1 22.5 1.2 22.1 1.5 21.7 1.6 21.4 1.8 21.1 2 20.7 2.8 19.4 3.4 18.2 4.1 17.2 4.3 16.9 4.5 16.5 4.7 16.2 5.1 15.5 5.6 14.7 6.3 13.8 7.4 12.5 8.7 11.2 10.1 10 17.2 3.7 26.1 0.5 36.6 0.5 41.9 0.5 47 1.4 51.8 3.2 56.6 4.9 61 7.4 64.6 10.6 68.4 13.8 71.4 17.7 73.5 22.1 75.7 26.6 76.9 31.6 76.9 36.9 76.9 47.7 72.6 56.3 64.3 62.7"/></g><g transform="translate(45.520798, 71.562950) scale(1, -1) translate(-45.520798, -71.562950) translate(2.020798, 12.562950)" fill="#FF8300"><path d="M42.7 60C42.4 60.3 42.2 60.6 41.9 60.9 42.2 61.1 42.4 61.4 42.7 61.8L83.9 117.6 68.9 117.6C65.5 117.6 62.5 117 59.9 115.6 57.2 114.3 55 112.3 53.3 109.6L21.9 67C21.3 66.2 20.7 65.5 20.1 64.9 20.1 64.9 20 64.9 20 64.8L20 117.6 0.1 117.6 0.1 0.9 20 0.9 20 56.8C20.1 56.7 20.1 56.7 20.1 56.6 20.7 56.1 21.3 55.5 21.9 54.7L55.9 8.9C57.6 6.2 59.8 4.2 62.4 2.9 65.1 1.6 68.1 0.9 71.5 0.9L86.5 0.9 42.7 60Z"/></g><g transform="translate(433.574255, 70.833883) scale(1, -1) translate(-433.574255, -70.833883) translate(366.074255, 0.833883)" fill="#FF8300"><path d="M81.3 12.3C54.6 7.2 37.5 21 37.5 21 37.5 21 50.2 33.1 51.8 35.4 62.8 28.9 77.5 31.6 77.5 31.6 93.5 35.4 99.9 45.1 99.9 45.1L118.5 37.2C112 27.9 101.2 16.2 81.3 12.3L81.3 12.3ZM45.8 82.8C44.1 83.8 40.4 85.8 36.1 88.2 41.4 97.9 50.8 105.2 62.4 107.5 64.9 108 67.5 108.3 70 108.3L70 97C70 97 83.9 97.8 92.8 84.8 94.4 85.9 98 88.2 102.2 91 104.9 86.9 106.9 82.2 107.9 77.1 109.5 69.3 108.5 61.6 105.7 54.7L95.3 59C95.3 59 91.7 48.8 80.4 44.2 80.4 44.2 64.4 36.8 50.6 50.1 49.7 49.3 46.5 46.1 42.6 42.2 39.8 45 37.4 48.2 35.6 51.8L45.5 56.9C45.5 56.9 38.4 69 45.8 82.8L45.8 82.8ZM31.8 62.6L13.9 53.3C8.5 71 14.3 87.2 14.3 87.2 14.3 87.2 28 78.6 32 77.4 30.3 68.9 31.8 62.6 31.8 62.6L31.8 62.6ZM81.3 126.8C99.5 123.4 111.2 110.8 111.2 110.8 111.2 110.8 97.3 102.6 94.3 99.6 87.6 105 81.3 106.6 81.3 106.6L81.3 126.8ZM123.9 47.2C128.1 57.5 129.5 69.2 127.2 80.9 125.6 88.7 122.6 95.8 118.5 101.9 123.8 105.5 127.7 108.1 127.7 108.1 127.7 108.1 109.8 138.5 70 139L70 127.9C66.2 127.9 62.4 127.5 58.6 126.8 41 123.3 26.9 112.2 18.8 97.7 13.2 100.8 9 103.1 9 103.1 9 103.1-9.7 73.1 8.3 37.6L18.1 42.7C20.9 37.3 24.5 32.5 28.7 28.3 24.2 23.8 20.9 20.4 20.9 20.4 20.9 20.4 40-0.4 70 0.1 99.2 0.6 122.9 16.5 134.1 43L123.9 47.2Z"/></g></g></g></svg>